<?xml version="1.0" encoding="UTF-8" standalone="no"?>
<svg
   xmlns:dc="http://purl.org/dc/elements/1.1/"
   xmlns:cc="http://creativecommons.org/ns#"
   xmlns:rdf="http://www.w3.org/1999/02/22-rdf-syntax-ns#"
   xmlns:svg="http://www.w3.org/2000/svg"
   xmlns="http://www.w3.org/2000/svg"
   xmlns:xlink="http://www.w3.org/1999/xlink"
   xmlns:sodipodi="http://sodipodi.sourceforge.net/DTD/sodipodi-0.dtd"
   xmlns:inkscape="http://www.inkscape.org/namespaces/inkscape"
   id="svg1"
   sodipodi:docname="eqz-liabilities.svg"
   viewBox="0 0 48 48"
   sodipodi:version="0.32"
   _SVGFile__filename="oldscale/apps/apollon.svg"
   version="1.0"
   y="0"
   x="0"
   inkscape:version="0.91 r13725"
   width="48"
   height="48">
  <defs
     id="defs22">
    <linearGradient
       gradientTransform="matrix(1.7884615,0,0,1.7884615,2.5274401,-11.367121)"
       inkscape:collect="always"
       xlink:href="#linearGradient3827"
       id="linearGradient3833"
       x1="5.0000005"
       y1="20.999971"
       x2="5.0000005"
       y2="15.999972"
       gradientUnits="userSpaceOnUse" />
    <linearGradient
       id="linearGradient3827">
      <stop
         style="stop-color:#cc0001;stop-opacity:1"
         offset="0"
         id="stop3829" />
      <stop
         style="stop-color:#ef292a;stop-opacity:1"
         offset="1"
         id="stop3831" />
    </linearGradient>
  </defs>
  <sodipodi:namedview
     id="base"
     bordercolor="#666666"
     inkscape:pageshadow="2"
     inkscape:window-y="0"
     pagecolor="#ffffff"
     inkscape:window-height="699"
     inkscape:zoom="7.1823417"
     inkscape:window-x="0"
     borderopacity="1.0"
     inkscape:current-layer="svg1"
     inkscape:cx="-4.8491887"
     inkscape:cy="33.769232"
     inkscape:window-width="1024"
     inkscape:pageopacity="0.0"
     showgrid="false" />
  <metadata
     id="metadata20">
    <rdf:RDF>
      <cc:Work>
        <dc:format>image/svg+xml</dc:format>
        <dc:type
           rdf:resource="http://purl.org/dc/dcmitype/StillImage" />
        <cc:license
           rdf:resource="http://creativecommons.org/publicdomain/zero/1.0/" />
        <dc:publisher>
          <cc:Agent
             rdf:about="http://openclipart.org/">
            <dc:title>Openclipart</dc:title>
          </cc:Agent>
        </dc:publisher>
        <dc:title></dc:title>
      </cc:Work>
      <cc:License
         rdf:about="http://creativecommons.org/publicdomain/zero/1.0/">
        <cc:permits
           rdf:resource="http://creativecommons.org/ns#Reproduction" />
        <cc:permits
           rdf:resource="http://creativecommons.org/ns#Distribution" />
        <cc:permits
           rdf:resource="http://creativecommons.org/ns#DerivativeWorks" />
      </cc:License>
    </rdf:RDF>
  </metadata>
  <g
     transform="translate(0.1500499,-0.0525912)"
     id="g4178">
    <path
       inkscape:connector-curvature="0"
       id="rect4139-3"
       d="m 19.637386,20.34467 c -0.07449,0 -0.134512,0.10963 -0.134512,0.246016 l 0,18.318358 c 0,0.136391 0.06003,0.246286 0.134512,0.246286 l 7.725227,0 c 0.07449,0 0.134512,-0.109889 0.134512,-0.246286 l 0,-18.318358 c 0,-0.136389 -0.06003,-0.246016 -0.134512,-0.246016 l -7.725227,0 z"
       style="opacity:1;fill:#ffffff;fill-opacity:1;stroke:#333333;stroke-width:2.81607985;stroke-linecap:butt;stroke-linejoin:miter;stroke-miterlimit:4;stroke-dasharray:none;stroke-dashoffset:0;stroke-opacity:1" />
    <path
       inkscape:connector-curvature="0"
       id="rect4139-6"
       d="m 28.137387,20.34467 c -0.07449,0 -0.134512,0.10963 -0.134512,0.246016 l 0,18.318358 c 0,0.136391 0.06003,0.246286 0.134512,0.246286 l 7.725227,0 c 0.07449,0 0.134512,-0.109889 0.134512,-0.246286 l 0,-18.318358 c 0,-0.136389 -0.06003,-0.246016 -0.134512,-0.246016 l -7.725227,0 z"
       style="opacity:1;fill:#ffffff;fill-opacity:1;stroke:#333333;stroke-width:2.81607985;stroke-linecap:butt;stroke-linejoin:miter;stroke-miterlimit:4;stroke-dasharray:none;stroke-dashoffset:0;stroke-opacity:1" />
    <path
       inkscape:connector-curvature="0"
       id="rect4139"
       d="m 11.674496,19.666937 c -0.07449,0 -0.134512,0.10963 -0.134512,0.246016 l 0,18.318358 c 0,0.136391 0.06003,0.246286 0.134512,0.246286 l 7.725227,0 c 0.07449,0 0.134512,-0.109889 0.134512,-0.246286 l 0,-18.318358 c 0,-0.136389 -0.06003,-0.246016 -0.134512,-0.246016 l -7.725227,0 z"
       style="opacity:1;fill:#ffffff;fill-opacity:1;stroke:#333333;stroke-width:2.81607985;stroke-linecap:butt;stroke-linejoin:miter;stroke-miterlimit:4;stroke-dasharray:none;stroke-dashoffset:0;stroke-opacity:1" />
    <path
       id="path828-2"
       style="fill:#ffffff;fill-rule:evenodd;stroke:#333333;stroke-width:1.60578454;stroke-linecap:round;stroke-linejoin:round;stroke-miterlimit:4;stroke-dasharray:none"
       d="m 9.8268749,37.689518 -1.8451443,4.032571 31.9101434,0 -1.8628,-4.032571 -28.2019096,0 z"
       inkscape:connector-curvature="0" />
    <path
       id="path829-9"
       style="fill:none;stroke:#333333;stroke-width:2.77600002;stroke-miterlimit:4;stroke-dasharray:none"
       d="m 11.515384,38.157604 0,-17.294774"
       inkscape:connector-curvature="0" />
    <path
       id="path830-1"
       style="fill:#333333;stroke:#333333;stroke-width:2.77600002;stroke-miterlimit:4;stroke-dasharray:none"
       d="m 19.725836,38.157604 0,-17.294774"
       inkscape:connector-curvature="0" />
    <path
       id="path832-2"
       style="fill:none;stroke:#333333;stroke-width:2.77600002;stroke-miterlimit:4;stroke-dasharray:none"
       d="m 28.147203,38.157604 0,-17.294774"
       inkscape:connector-curvature="0" />
    <path
       id="path833-7"
       style="fill:none;stroke:#333333;stroke-width:2.77600002;stroke-miterlimit:4;stroke-dasharray:none"
       d="m 36.358466,38.157604 0,-17.294774"
       inkscape:connector-curvature="0" />
    <path
       id="rect836-0"
       style="fill:#ffffff;fill-rule:evenodd;stroke:#333333;stroke-width:1.60578454;stroke-miterlimit:4;stroke-dasharray:none"
       d="m 9.8434885,14.061446 c -0.2654693,0 -0.4791877,0.282532 -0.4791877,0.632261 l 0,5.731581 c 0,0.349728 0.2137184,0.63226 0.4791877,0.63226 l 28.1862805,0 c 0.2657,0 0.479303,-0.282532 0.479303,-0.63226 l 0,-5.731581 c 0,-0.349729 -0.213603,-0.632261 -0.479303,-0.632261 l -28.1862805,0 z"
       inkscape:connector-curvature="0" />
    <path
       id="path837-9"
       style="fill:#ffffff;fill-rule:evenodd;stroke:#333333;stroke-width:2.0072608;stroke-linecap:round;stroke-linejoin:round;stroke-miterlimit:4;stroke-dasharray:none"
       d="m 8.3001084,14.061446 31.2733876,0 L 24.084124,7.5239623 8.3001084,14.061446 Z"
       inkscape:connector-curvature="0" />
  </g>
  <rect
     style="opacity:1;fill:url(#linearGradient3833);fill-opacity:1;stroke:none"
     id="rect3036"
     width="23.25"
     height="8.9423075"
     x="2.5274405"
     y="17.248295"
     rx="1.7884113"
     ry="1.7884113" />
  <path
     inkscape:connector-curvature="0"
     style="opacity:0.4;fill:#000000;fill-opacity:1;stroke:none"
     d="m 4.3159021,17.248289 c -0.99078,0 -1.788462,0.7976 -1.788462,1.7884 l 0,5.3654 c 0,0.9908 0.797682,1.7885 1.788462,1.7885 l 19.6730759,0 c 0.990779,0 1.788462,-0.7977 1.788462,-1.7885 l 0,-5.3654 c 0,-0.9908 -0.797683,-1.7884 -1.788462,-1.7884 l -19.6730759,0 z m 0,1.7884 19.6730759,0 0,5.3654 -19.6730759,0 0,-5.3654 z"
     id="rect3043" />
</svg>
