<?xml version="1.0" encoding="UTF-8" standalone="no"?>
<!-- Created with Inkscape (http://www.inkscape.org/) -->

<svg
   xmlns:dc="http://purl.org/dc/elements/1.1/"
   xmlns:cc="http://creativecommons.org/ns#"
   xmlns:rdf="http://www.w3.org/1999/02/22-rdf-syntax-ns#"
   xmlns:svg="http://www.w3.org/2000/svg"
   xmlns="http://www.w3.org/2000/svg"
   xmlns:xlink="http://www.w3.org/1999/xlink"
   xmlns:sodipodi="http://sodipodi.sourceforge.net/DTD/sodipodi-0.dtd"
   xmlns:inkscape="http://www.inkscape.org/namespaces/inkscape"
   width="48"
   height="48"
   id="svg2"
   version="1.1"
   inkscape:version="0.91 r13725"
   sodipodi:docname="eqz-repayment.svg"
   inkscape:export-filename="/home/alexander/libo/icon-themes/tango_testing/cmd/lc_numberformatcurrency.png"
   inkscape:export-xdpi="90"
   inkscape:export-ydpi="90">
  <defs
     id="defs4">
    <marker
       inkscape:stockid="TriangleInS"
       orient="auto"
       refY="0.0"
       refX="0.0"
       id="TriangleInS"
       style="overflow:visible"
       inkscape:isstock="true">
      <path
         id="path4343"
         d="M 5.77,0.0 L -2.88,5.0 L -2.88,-5.0 L 5.77,0.0 z "
         style="fill-rule:evenodd;stroke:#cc0001;stroke-width:1pt;stroke-opacity:1;fill:#cc0001;fill-opacity:1"
         transform="scale(-0.2)" />
    </marker>
    <marker
       inkscape:stockid="TriangleOutS"
       orient="auto"
       refY="0.0"
       refX="0.0"
       id="TriangleOutS"
       style="overflow:visible"
       inkscape:isstock="true">
      <path
         id="path4352"
         d="M 5.77,0.0 L -2.88,5.0 L -2.88,-5.0 L 5.77,0.0 z "
         style="fill-rule:evenodd;stroke:#73d216;stroke-width:1pt;stroke-opacity:1;fill:#73d216;fill-opacity:1"
         transform="scale(0.2)" />
    </marker>
    <marker
       inkscape:stockid="TriangleOutM"
       orient="auto"
       refY="0.0"
       refX="0.0"
       id="marker4504"
       style="overflow:visible"
       inkscape:isstock="true">
      <path
         id="path4506"
         d="M 5.77,0.0 L -2.88,5.0 L -2.88,-5.0 L 5.77,0.0 z "
         style="fill-rule:evenodd;stroke:#ef292a;stroke-width:1pt;stroke-opacity:1;fill:#ef292a;fill-opacity:1"
         transform="scale(0.4)" />
    </marker>
    <marker
       inkscape:stockid="Arrow2Mend"
       orient="auto"
       refY="0.0"
       refX="0.0"
       id="Arrow2Mend"
       style="overflow:visible;"
       inkscape:isstock="true">
      <path
         id="path4231"
         style="fill-rule:evenodd;stroke-width:0.62500000;stroke-linejoin:round;"
         d="M 8.7185878,4.0337352 L -2.2072895,0.016013256 L 8.7185884,-4.0017078 C 6.9730900,-1.6296469 6.9831476,1.6157441 8.7185878,4.0337352 z "
         transform="scale(0.6) rotate(180) translate(0,0)" />
    </marker>
    <marker
       inkscape:stockid="TriangleOutM"
       orient="auto"
       refY="0.0"
       refX="0.0"
       id="TriangleOutM"
       style="overflow:visible"
       inkscape:isstock="true">
      <path
         id="path4349"
         d="M 5.77,0.0 L -2.88,5.0 L -2.88,-5.0 L 5.77,0.0 z "
         style="fill-rule:evenodd;stroke:#ef292a;stroke-width:1pt;stroke-opacity:1;fill:#ef292a;fill-opacity:1"
         transform="scale(0.4)" />
    </marker>
    <linearGradient
       id="linearGradient14377">
      <stop
         style="stop-color:#cabb59;stop-opacity:1;"
         offset="0"
         id="stop14379" />
      <stop
         style="stop-color:#eed535;stop-opacity:1;"
         offset="1"
         id="stop14381" />
    </linearGradient>
    <linearGradient
       id="linearGradient14282">
      <stop
         style="stop-color:#b7dd93;stop-opacity:1;"
         offset="0"
         id="stop14284" />
      <stop
         id="stop14290"
         offset="0.5"
         style="stop-color:#a3d277;stop-opacity:1;" />
      <stop
         style="stop-color:#b6db92;stop-opacity:1;"
         offset="1"
         id="stop14286" />
    </linearGradient>
    <linearGradient
       id="linearGradient3801">
      <stop
         style="stop-color:#4e9a06;stop-opacity:1;"
         offset="0"
         id="stop3803" />
      <stop
         style="stop-color:#73d216;stop-opacity:1"
         offset="1"
         id="stop3805" />
    </linearGradient>
    <linearGradient
       inkscape:collect="always"
       xlink:href="#linearGradient3801"
       id="linearGradient14270"
       gradientUnits="userSpaceOnUse"
       x1="16.070213"
       y1="1031.785"
       x2="22.955807"
       y2="1025.0675" />
    <linearGradient
       inkscape:collect="always"
       xlink:href="#linearGradient14282"
       id="linearGradient14288"
       x1="-4.4525447"
       y1="1041.3625"
       x2="27.817404"
       y2="1041.3625"
       gradientUnits="userSpaceOnUse" />
    <linearGradient
       inkscape:collect="always"
       xlink:href="#linearGradient14377"
       id="linearGradient14398"
       gradientUnits="userSpaceOnUse"
       x1="-114"
       y1="49"
       x2="-106"
       y2="49" />
    <linearGradient
       inkscape:collect="always"
       xlink:href="#linearGradient14282"
       id="linearGradient14413"
       gradientUnits="userSpaceOnUse"
       x1="-4.4525447"
       y1="1041.3625"
       x2="27.817404"
       y2="1041.3625" />
    <linearGradient
       inkscape:collect="always"
       xlink:href="#linearGradient14377"
       id="linearGradient14423"
       gradientUnits="userSpaceOnUse"
       x1="-114"
       y1="49"
       x2="-106"
       y2="49" />
    <linearGradient
       inkscape:collect="always"
       xlink:href="#linearGradient14377"
       id="linearGradient14433"
       gradientUnits="userSpaceOnUse"
       x1="-114"
       y1="49"
       x2="-106"
       y2="49" />
    <linearGradient
       inkscape:collect="always"
       xlink:href="#linearGradient14377-8"
       id="linearGradient14439-2"
       gradientUnits="userSpaceOnUse"
       x1="-114"
       y1="49"
       x2="-106"
       y2="49" />
    <linearGradient
       id="linearGradient14377-8">
      <stop
         style="stop-color:#cabb59;stop-opacity:1;"
         offset="0"
         id="stop14379-4" />
      <stop
         style="stop-color:#eed535;stop-opacity:1;"
         offset="1"
         id="stop14381-1" />
    </linearGradient>
    <linearGradient
       inkscape:collect="always"
       xlink:href="#linearGradient14377-8"
       id="linearGradient14455"
       gradientUnits="userSpaceOnUse"
       x1="-114"
       y1="49"
       x2="-106"
       y2="49" />
    <linearGradient
       id="linearGradient14457">
      <stop
         style="stop-color:#cabb59;stop-opacity:1;"
         offset="0"
         id="stop14459" />
      <stop
         style="stop-color:#eed535;stop-opacity:1;"
         offset="1"
         id="stop14461" />
    </linearGradient>
    <linearGradient
       inkscape:collect="always"
       xlink:href="#linearGradient14377-8"
       id="linearGradient14463"
       gradientUnits="userSpaceOnUse"
       x1="-114"
       y1="49"
       x2="-106"
       y2="49" />
    <linearGradient
       id="linearGradient14465">
      <stop
         style="stop-color:#cabb59;stop-opacity:1;"
         offset="0"
         id="stop14467" />
      <stop
         style="stop-color:#eed535;stop-opacity:1;"
         offset="1"
         id="stop14469" />
    </linearGradient>
    <linearGradient
       inkscape:collect="always"
       xlink:href="#linearGradient14377"
       id="linearGradient14526"
       gradientUnits="userSpaceOnUse"
       x1="-114"
       y1="49"
       x2="-106"
       y2="49" />
    <linearGradient
       inkscape:collect="always"
       xlink:href="#linearGradient14377"
       id="linearGradient14550"
       gradientUnits="userSpaceOnUse"
       x1="-114"
       y1="49"
       x2="-106"
       y2="49" />
    <linearGradient
       inkscape:collect="always"
       xlink:href="#linearGradient14282"
       id="linearGradient14565"
       gradientUnits="userSpaceOnUse"
       x1="-4.4525447"
       y1="1041.3625"
       x2="27.817404"
       y2="1041.3625"
       gradientTransform="translate(0,-5)" />
    <linearGradient
       inkscape:collect="always"
       xlink:href="#linearGradient14377"
       id="linearGradient14581"
       gradientUnits="userSpaceOnUse"
       x1="-114"
       y1="49"
       x2="-106"
       y2="49" />
    <linearGradient
       inkscape:collect="always"
       xlink:href="#linearGradient14377"
       id="linearGradient14615"
       gradientUnits="userSpaceOnUse"
       x1="-114"
       y1="49"
       x2="-106"
       y2="49" />
    <linearGradient
       inkscape:collect="always"
       xlink:href="#linearGradient14377"
       id="linearGradient14625"
       gradientUnits="userSpaceOnUse"
       x1="-114"
       y1="49"
       x2="-106"
       y2="49" />
    <linearGradient
       inkscape:collect="always"
       xlink:href="#linearGradient14377"
       id="linearGradient14635"
       gradientUnits="userSpaceOnUse"
       x1="-114"
       y1="49"
       x2="-106"
       y2="49" />
    <linearGradient
       inkscape:collect="always"
       xlink:href="#linearGradient14377"
       id="linearGradient14645"
       gradientUnits="userSpaceOnUse"
       x1="-114"
       y1="49"
       x2="-106"
       y2="49" />
    <filter
       inkscape:collect="always"
       id="filter3900"
       x="-0.12"
       width="1.24"
       y="-0.12"
       height="1.24">
      <feGaussianBlur
         inkscape:collect="always"
         stdDeviation="0.4"
         id="feGaussianBlur3902" />
    </filter>
    <linearGradient
       inkscape:collect="always"
       xlink:href="#linearGradient14377"
       id="linearGradient3906"
       gradientUnits="userSpaceOnUse"
       x1="-114"
       y1="49"
       x2="-106"
       y2="49" />
    <filter
       inkscape:collect="always"
       id="filter3928"
       x="-0.097431675"
       width="1.1948634"
       y="-0.11880784"
       height="1.2376157">
      <feGaussianBlur
         inkscape:collect="always"
         stdDeviation="0.39218257"
         id="feGaussianBlur3930" />
    </filter>
    <linearGradient
       id="linearGradient3827">
      <stop
         style="stop-color:#cc0001;stop-opacity:1"
         offset="0"
         id="stop3829" />
      <stop
         style="stop-color:#ef292a;stop-opacity:1"
         offset="1"
         id="stop3831" />
    </linearGradient>
    <linearGradient
       inkscape:collect="always"
       xlink:href="#linearGradient3801"
       id="linearGradient4502"
       x1="-29.75"
       y1="1023.5722"
       x2="-7.25"
       y2="1023.5722"
       gradientUnits="userSpaceOnUse"
       gradientTransform="matrix(0.65400736,0.62799256,-0.63072821,0.65117073,668.62564,366.29225)" />
    <linearGradient
       inkscape:collect="always"
       xlink:href="#linearGradient3827"
       id="linearGradient4502-3"
       x1="-29.75"
       y1="1023.5722"
       x2="-7.25"
       y2="1023.5722"
       gradientUnits="userSpaceOnUse"
       gradientTransform="matrix(0.65400736,0.62799256,-0.63072821,0.65117073,679.70673,363.78304)" />
    <marker
       inkscape:stockid="TriangleOutS"
       orient="auto"
       refY="0"
       refX="0"
       id="TriangleOutS-5"
       style="overflow:visible"
       inkscape:isstock="true">
      <path
         inkscape:connector-curvature="0"
         id="path4352-3"
         d="m 5.77,0 -8.65,5 0,-10 8.65,5 z"
         style="fill:#ef292a;fill-opacity:1;fill-rule:evenodd;stroke:#ef292a;stroke-width:1pt;stroke-opacity:1"
         transform="scale(0.2,0.2)" />
    </marker>
  </defs>
  <sodipodi:namedview
     id="base"
     pagecolor="#ffffff"
     bordercolor="#666666"
     borderopacity="1.0"
     inkscape:pageopacity="0.0"
     inkscape:pageshadow="2"
     inkscape:zoom="4"
     inkscape:cx="-23.110246"
     inkscape:cy="47.995025"
     inkscape:document-units="px"
     inkscape:current-layer="layer1"
     showgrid="false"
     inkscape:snap-global="true"
     showborder="true"
     borderlayer="false"
     inkscape:showpageshadow="false"
     inkscape:window-width="1221"
     inkscape:window-height="703"
     inkscape:window-x="143"
     inkscape:window-y="42"
     inkscape:window-maximized="0"
     fit-margin-top="0"
     fit-margin-left="0"
     fit-margin-right="0"
     fit-margin-bottom="0">
    <inkscape:grid
       type="xygrid"
       id="grid2996"
       empspacing="5"
       visible="true"
       enabled="true"
       snapvisiblegridlinesonly="true"
       originx="184"
       originy="549.3222" />
  </sodipodi:namedview>
  <metadata
     id="metadata7">
    <rdf:RDF>
      <cc:Work
         rdf:about="">
        <dc:format>image/svg+xml</dc:format>
        <dc:type
           rdf:resource="http://purl.org/dc/dcmitype/StillImage" />
        <dc:title></dc:title>
      </cc:Work>
    </rdf:RDF>
  </metadata>
  <g
     inkscape:label="Ebene 1"
     inkscape:groupmode="layer"
     id="layer1"
     transform="translate(0,-1003.3222)">
    <g
       id="g4247"
       transform="translate(4,4)">
      <g
         transform="matrix(2.1035224,0,0,2.0880997,256.23772,-1215.0091)"
         id="use14538">
        <circle
           r="4"
           cy="49"
           cx="-110"
           transform="translate(0,1028.3622)"
           id="path14629"
           style="fill:url(#linearGradient14635);fill-opacity:1;stroke:none" />
        <path
           sodipodi:nodetypes="ssssssssss"
           inkscape:connector-curvature="0"
           style="opacity:0.4;fill:#000000;fill-opacity:1;stroke:none"
           d="m -110,45 c -2.20914,0 -4,1.790861 -4,4 0,2.209139 1.79086,4 4,4 2.20914,0 4,-1.790861 4,-4 0,-2.209139 -1.79086,-4 -4,-4 z m 0,1 c 1.65685,0 3,1.343146 3,3 0,1.656854 -1.34315,2.466324 -3,2.466324 -1.65685,0 -3,-0.80947 -3,-2.466324 0,-1.656854 1.34315,-3 3,-3 z"
           transform="translate(0,1028.3622)"
           id="path14631" />
        <path
           sodipodi:nodetypes="ssssssssss"
           transform="translate(0,1028.3622)"
           inkscape:connector-curvature="0"
           style="opacity:0.4;fill:#ffffff;fill-opacity:1;stroke:none"
           d="m -110,46 c -1.65685,0 -3,1.343146 -3,3 0,1.656854 1.34315,2.466324 3,2.466324 1.65685,0 3,-0.80947 3,-2.466324 0,-1.656854 -1.34315,-3 -3,-3 z m 0,1 c 1.10457,0 2,0.895431 2,2 0,1.104569 -0.89543,1.466324 -2,1.466324 -1.10457,0 -2,-0.361755 -2,-1.466324 0,-1.104569 0.89543,-2 2,-2 z"
           id="path14633" />
      </g>
      <circle
         r="4"
         cy="14"
         cx="15"
         style="opacity:0.3;fill:#000000;fill-opacity:1;stroke:none;filter:url(#filter3900)"
         id="path3904"
         transform="matrix(2.0938459,0,0,2.0938459,-2.2421332,1008.3729)" />
      <ellipse
         ry="3.5355339"
         rx="5.1486211"
         cy="14.409864"
         cx="12.705825"
         transform="matrix(1.542769,-0.83769764,0.83769767,1.5427691,-4.7662959,1022.8714)"
         id="path3908"
         style="opacity:0.25;fill:#000000;fill-opacity:1;stroke:none;filter:url(#filter3928)" />
      <circle
         r="4"
         cy="14"
         cx="15"
         transform="matrix(2.0938459,0,0,2.3555766,1.9455586,997.38019)"
         id="path3890"
         style="opacity:0.3;fill:#000000;fill-opacity:1;stroke:none;filter:url(#filter3900)" />
      <g
         transform="matrix(2.0938459,0,0,2.0938459,1.9883719,-1155.3246)"
         id="g14603">
        <g
           transform="matrix(1.0046214,0,0,0.9972557,123.48791,-27.039689)"
           id="use14540">
          <circle
             r="4"
             cy="49"
             cx="-110"
             transform="translate(0,1028.3622)"
             id="path14639"
             style="fill:url(#linearGradient14645);fill-opacity:1;stroke:none" />
          <path
             sodipodi:nodetypes="ssssssssss"
             inkscape:connector-curvature="0"
             style="opacity:0.4;fill:#000000;fill-opacity:1;stroke:none"
             d="m -110,45 c -2.20914,0 -4,1.790861 -4,4 0,2.209139 1.79086,4 4,4 2.20914,0 4,-1.790861 4,-4 0,-2.209139 -1.79086,-4 -4,-4 z m 0,1 c 1.65685,0 3,1.343146 3,3 0,1.656854 -1.34315,2 -3,2 -1.65685,0 -3,-0.343146 -3,-2 0,-1.656854 1.34315,-3 3,-3 z"
             transform="translate(0,1028.3622)"
             id="path14641" />
          <path
             sodipodi:nodetypes="ssssssssss"
             transform="translate(0,1028.3622)"
             inkscape:connector-curvature="0"
             style="opacity:0.4;fill:#ffffff;fill-opacity:1;stroke:none"
             d="m -110,46 c -1.65685,0 -3,1.343146 -3,3 0,1.656854 1.34315,2 3,2 1.65685,0 3,-0.343146 3,-2 0,-1.656854 -1.34315,-3 -3,-3 z m 0,1 c 1.10457,0 2,0.895431 2,2 0,1.104569 -0.89543,1 -2,1 -1.10457,0 -2,0.104569 -2,-1 0,-1.104569 0.89543,-2 2,-2 z"
             id="path14643" />
        </g>
        <path
           inkscape:transform-center-x="-0.67289324"
           inkscape:transform-center-y="0.24893592"
           sodipodi:end="3.1415927"
           sodipodi:start="0"
           transform="matrix(0.55151432,-0.83416542,0.83416542,0.55151432,-6.9510307,1052.1535)"
           d="m 18,14 a 3,3 0 0 1 -1.5,2.598076 3,3 0 0 1 -3,0 A 3,3 0 0 1 12,14 l 3,0 z"
           sodipodi:ry="3"
           sodipodi:rx="3"
           sodipodi:cy="14"
           sodipodi:cx="15"
           id="path14585"
           style="opacity:0.2;fill:#ffffff;fill-opacity:1;stroke:none"
           sodipodi:type="arc" />
      </g>
      <g
         id="g14542"
         transform="matrix(2.1035224,0,0,2.0880997,264.7407,-1220.3111)">
        <circle
           r="4"
           cy="49"
           cx="-110"
           style="fill:url(#linearGradient3906);fill-opacity:1;stroke:none"
           id="path14544"
           transform="translate(0,1028.3622)" />
        <path
           sodipodi:nodetypes="ssssssssss"
           transform="translate(0,1028.3622)"
           id="path14546"
           d="m -110,45 c -2.20914,0 -4,1.790861 -4,4 0,2.209139 1.79086,4 4,4 2.20914,0 4,-1.790861 4,-4 0,-2.209139 -1.79086,-4 -4,-4 z m 0,1 c 1.65685,0 3,1.343146 3,3 0,1.656854 -1.34315,1.997248 -3,1.997248 -1.65685,0 -3,-0.340394 -3,-1.997248 0,-1.656854 1.34315,-3 3,-3 z"
           style="opacity:0.3;fill:#000000;fill-opacity:1;stroke:none"
           inkscape:connector-curvature="0" />
        <path
           sodipodi:nodetypes="ssssssssss"
           id="path14548"
           d="m -110,1074.3622 c -1.65685,0 -3,1.3432 -3,3 0,1.6569 1.34315,1.9972 3,1.9972 1.65685,0 3,-0.3403 3,-1.9972 0,-1.6568 -1.34315,-3 -3,-3 z m 0,1 c 1.10457,0 2,0.8955 2,2 0,1.1046 -0.89543,0.9973 -2,0.9973 -1.10457,0 -2,0.1073 -2,-0.9973 0,-1.1045 0.89543,-2 2,-2 z"
           style="opacity:0.4;fill:#ffffff;fill-opacity:1;stroke:none"
           inkscape:connector-curvature="0" />
      </g>
      <path
         inkscape:transform-center-x="-0.80258046"
         inkscape:transform-center-y="0.29694936"
         sodipodi:end="3.1415927"
         sodipodi:start="0"
         transform="matrix(0.55151432,-0.83416543,0.83416543,0.55151432,0,0)"
         d="m -833.93959,595.50208 a 6.2815375,6.2815375 0 0 1 -3.14077,5.43997 6.2815375,6.2815375 0 0 1 -6.28154,0 6.2815375,6.2815375 0 0 1 -3.14077,-5.43998 l 6.28154,10e-6 z"
         sodipodi:ry="6.2815375"
         sodipodi:rx="6.2815375"
         sodipodi:cy="595.50208"
         sodipodi:cx="-840.22113"
         id="path14583"
         style="opacity:0.4;fill:#ffffff;fill-opacity:1;stroke:none"
         sodipodi:type="arc" />
    </g>
    <path
       style="fill:none;fill-rule:evenodd;stroke:url(#linearGradient4502);stroke-width:3.71714926;stroke-linecap:butt;stroke-linejoin:miter;stroke-miterlimit:4;stroke-dasharray:none;stroke-opacity:1;marker-end:url(#TriangleOutS)"
       d="m 3.5730571,1014.1297 14.7151659,14.1299"
       id="path4494"
       inkscape:connector-curvature="0" />
    <path
       style="fill:none;fill-rule:evenodd;stroke:url(#linearGradient4502-3);stroke-width:3.71714926;stroke-linecap:butt;stroke-linejoin:miter;stroke-miterlimit:4;stroke-dasharray:none;stroke-opacity:1;marker-start:url(#TriangleInS)"
       d="m 14.654153,1011.6205 14.715165,14.1299"
       id="path4494-5"
       inkscape:connector-curvature="0" />
  </g>
</svg>
