<?xml version="1.0" encoding="UTF-8" standalone="no"?>
<!-- Generator: Adobe Illustrator 16.0.0, SVG Export Plug-In . SVG Version: 6.00 Build 0)  -->

<svg
   xmlns:dc="http://purl.org/dc/elements/1.1/"
   xmlns:cc="http://creativecommons.org/ns#"
   xmlns:rdf="http://www.w3.org/1999/02/22-rdf-syntax-ns#"
   xmlns:svg="http://www.w3.org/2000/svg"
   xmlns="http://www.w3.org/2000/svg"
   xmlns:xlink="http://www.w3.org/1999/xlink"
   xmlns:sodipodi="http://sodipodi.sourceforge.net/DTD/sodipodi-0.dtd"
   xmlns:inkscape="http://www.inkscape.org/namespaces/inkscape"
   version="1.1"
   id="Layer_1"
   x="0px"
   y="0px"
   width="48"
   height="48"
   viewBox="0 0 48 48"
   enable-background="new 0 0 512 512"
   xml:space="preserve"
   inkscape:version="0.91 r13725"
   sodipodi:docname="eqz-split-transaction.svg"><metadata
     id="metadata21"><rdf:RDF><cc:Work
         rdf:about=""><dc:format>image/svg+xml</dc:format><dc:type
           rdf:resource="http://purl.org/dc/dcmitype/StillImage" /><dc:title></dc:title><cc:license
           rdf:resource="http://scripts.sil.org/OFL" /></cc:Work><cc:License
         rdf:about="http://scripts.sil.org/OFL"><cc:permits
           rdf:resource="http://scripts.sil.org/pub/OFL/Reproduction" /><cc:permits
           rdf:resource="http://scripts.sil.org/pub/OFL/Distribution" /><cc:permits
           rdf:resource="http://scripts.sil.org/pub/OFL/Embedding" /><cc:permits
           rdf:resource="http://scripts.sil.org/pub/OFL/DerivativeWorks" /><cc:requires
           rdf:resource="http://scripts.sil.org/pub/OFL/Notice" /><cc:requires
           rdf:resource="http://scripts.sil.org/pub/OFL/Attribution" /><cc:requires
           rdf:resource="http://scripts.sil.org/pub/OFL/ShareAlike" /><cc:requires
           rdf:resource="http://scripts.sil.org/pub/OFL/DerivativeRenaming" /><cc:requires
           rdf:resource="http://scripts.sil.org/pub/OFL/BundlingWhenSelling" /></cc:License></rdf:RDF></metadata><defs
     id="defs19"><linearGradient
       inkscape:collect="always"
       xlink:href="#linearGradient14377"
       id="linearGradient3906"
       gradientUnits="userSpaceOnUse"
       x1="-114"
       y1="49"
       x2="-106"
       y2="49" /><linearGradient
       id="linearGradient14377"><stop
         style="stop-color:#cabb59;stop-opacity:1;"
         offset="0"
         id="stop14379" /><stop
         style="stop-color:#eed535;stop-opacity:1;"
         offset="1"
         id="stop14381" /></linearGradient><filter
       inkscape:collect="always"
       id="filter3900"
       x="-0.12"
       width="1.24"
       y="-0.12"
       height="1.24"><feGaussianBlur
         inkscape:collect="always"
         stdDeviation="0.4"
         id="feGaussianBlur3902" /></filter><linearGradient
       inkscape:collect="always"
       xlink:href="#linearGradient14377"
       id="linearGradient4205"
       gradientUnits="userSpaceOnUse"
       x1="-114"
       y1="49"
       x2="-106"
       y2="49" /><linearGradient
       inkscape:collect="always"
       xlink:href="#linearGradient14377"
       id="linearGradient4207"
       gradientUnits="userSpaceOnUse"
       x1="-114"
       y1="49"
       x2="-106"
       y2="49" /><linearGradient
       inkscape:collect="always"
       xlink:href="#linearGradient14282"
       id="linearGradient3856"
       gradientUnits="userSpaceOnUse"
       x1="2"
       y1="1035.3622"
       x2="23"
       y2="1035.3622" /><linearGradient
       id="linearGradient14282"><stop
         style="stop-color:#b7dd93;stop-opacity:1;"
         offset="0"
         id="stop14284" /><stop
         id="stop14290"
         offset="0.5"
         style="stop-color:#a3d277;stop-opacity:1;" /><stop
         style="stop-color:#b6db92;stop-opacity:1;"
         offset="1"
         id="stop14286" /></linearGradient><linearGradient
       inkscape:collect="always"
       xlink:href="#linearGradient3858"
       id="linearGradient3864"
       x1="4.625"
       y1="0.24999999"
       x2="20.125"
       y2="16"
       gradientUnits="userSpaceOnUse" /><linearGradient
       inkscape:collect="always"
       id="linearGradient3858"><stop
         style="stop-color:#ffffff;stop-opacity:1;"
         offset="0"
         id="stop3860" /><stop
         style="stop-color:#ffffff;stop-opacity:0;"
         offset="1"
         id="stop3862" /></linearGradient></defs><sodipodi:namedview
     pagecolor="#ffffff"
     bordercolor="#666666"
     borderopacity="1"
     objecttolerance="10"
     gridtolerance="10"
     guidetolerance="10"
     inkscape:pageopacity="0"
     inkscape:pageshadow="2"
     inkscape:window-width="640"
     inkscape:window-height="480"
     id="namedview17"
     showgrid="false"
     inkscape:zoom="4.2205436"
     inkscape:cx="-84.900868"
     inkscape:cy="7.7984995"
     inkscape:current-layer="Layer_1" /><g
     id="g4324"
     transform="matrix(0.77591436,-0.0555395,-0.00559491,0.77768451,-36.578092,36.04871)"><path
       sodipodi:nodetypes="ccsccsc"
       id="rect14308"
       d="m 72.467142,11.48793 -17.5553,0 c -1.7555,-1.75552 -1.7555,-3.51105 -1.7555,-7.0221 l 0,-29.84396 17.5552,0 0,29.84396 c 0,3.51105 0,5.26658 1.7556,7.0221 z"
       style="fill:#abd783;fill-opacity:1;stroke:none"
       inkscape:connector-curvature="0" /><path
       sodipodi:nodetypes="ccsccsccsccscc"
       id="path14313"
       d="m 72.467142,11.48793 -17.5553,0 c -1.7555,-1.75552 -1.7555,-3.51105 -1.7555,-7.0221 l 0,-29.84396 17.5552,0 0,29.84396 c 0,3.51105 0,5.26658 1.7556,7.0221 z m -3.5111,-1.75552 c 0,-1.75553 0,-3.17192 0,-6.36379 l 0,-26.99122 -14.0442,0 0,26.99122 c 0,3.19187 0,4.60826 1.7555,6.36379 z"
       style="opacity:0.4;fill:#000000;fill-opacity:1;stroke:none"
       inkscape:connector-curvature="0" /><g
       transform="matrix(0,1.7555266,-1.7555266,0,1876.9066,-31.52242)"
       id="g3851"><rect
         style="fill:url(#linearGradient3856);fill-opacity:1;stroke:none"
         id="rect3055"
         width="21"
         height="10"
         x="2"
         y="1030.3622" /><path
         inkscape:connector-curvature="0"
         style="opacity:0.3;fill:#000000;fill-opacity:1;stroke:none"
         d="M 2,2 2,12 23,12 23,2 2,2 Z m 1,1 19,0 0,8 -19,0 0,-8 z"
         id="rect3833"
         transform="translate(0,1028.3622)" /><path
         inkscape:connector-curvature="0"
         style="opacity:0.4;fill:url(#linearGradient3864);fill-opacity:1;stroke:none"
         d="M 3,3 3,11 22,11 22,3 3,3 Z M 4,4 21,4 21,10 4,10 4,4 Z"
         transform="translate(0,1028.3622)"
         id="rect3842" /></g><g
       transform="matrix(0,1.7555266,-1.7555266,0,1908.4125,-32.29046)"
       id="g14571"><g
         transform="matrix(1.0520833,0,0,1,0.28781,15.922019)"
         id="g3866"><ellipse
           ry="2.5"
           rx="2"
           cy="34.5"
           cx="10"
           transform="matrix(1.2,0,0,1.2,0,995.9622)"
           id="path14339"
           style="opacity:0.2;fill:#000000;fill-opacity:1;stroke:none" /><circle
           r="1"
           cy="34"
           cx="10"
           transform="matrix(0.46534652,0,0,1,7.3465349,1002.3622)"
           id="path14341"
           style="opacity:0.5;fill:#a4d379;fill-opacity:1;stroke:none" /></g><ellipse
         ry="2.5"
         rx="2"
         cy="34.5"
         cx="10"
         style="opacity:0.2;fill:#000000;fill-opacity:1;stroke:none"
         id="path14351"
         transform="matrix(0.5,0,0,0.4,14.4375,1038.4997)" /><ellipse
         ry="2.5"
         rx="2"
         cy="34.5"
         cx="10"
         transform="matrix(0.5,0,0,0.4,1.4375,1038.4997)"
         id="path3870"
         style="opacity:0.2;fill:#000000;fill-opacity:1;stroke:none" /></g></g><g
     id="g4180"
     transform="translate(1.1846815,0)"><g
       transform="matrix(0.85011701,0,0,0.85338641,-119.50661,-389.97808)"
       id="g4209"><g
         id="use14538"
         transform="matrix(1.7636396,0,0,1.7507089,373.60447,-1397.6086)"><circle
           style="fill:url(#linearGradient4205);fill-opacity:1;stroke:none"
           id="path14629"
           transform="translate(0,1028.3622)"
           cx="-110"
           cy="49"
           r="4" /><path
           id="path14631"
           transform="translate(0,1028.3622)"
           d="m -110,45 c -2.20914,0 -4,1.790861 -4,4 0,2.209139 1.79086,4 4,4 2.20914,0 4,-1.790861 4,-4 0,-2.209139 -1.79086,-4 -4,-4 z m 0,1 c 1.65685,0 3,1.343146 3,3 0,1.656854 -1.34315,2.466324 -3,2.466324 -1.65685,0 -3,-0.80947 -3,-2.466324 0,-1.656854 1.34315,-3 3,-3 z"
           style="opacity:0.4;fill:#000000;fill-opacity:1;stroke:none"
           inkscape:connector-curvature="0"
           sodipodi:nodetypes="ssssssssss" /><path
           id="path14633"
           d="m -110,46 c -1.65685,0 -3,1.343146 -3,3 0,1.656854 1.34315,2.466324 3,2.466324 1.65685,0 3,-0.80947 3,-2.466324 0,-1.656854 -1.34315,-3 -3,-3 z m 0,1 c 1.10457,0 2,0.895431 2,2 0,1.104569 -0.89543,1.466324 -2,1.466324 -1.10457,0 -2,-0.361755 -2,-1.466324 0,-1.104569 0.89543,-2 2,-2 z"
           style="opacity:0.4;fill:#ffffff;fill-opacity:1;stroke:none"
           inkscape:connector-curvature="0"
           transform="translate(0,1028.3622)"
           sodipodi:nodetypes="ssssssssss" /></g><circle
         transform="matrix(1.7555266,0,0,1.7555266,156.88926,466.52395)"
         id="path3904"
         style="opacity:0.3;fill:#000000;fill-opacity:1;stroke:none;filter:url(#filter3900)"
         cx="15"
         cy="14"
         r="4" /><g
         id="g14603"
         transform="matrix(1.7555266,0,0,1.7555266,160.43621,-1347.5678)"><g
           id="use14540"
           transform="matrix(1.0046214,0,0,0.9972557,123.48791,-27.039689)"><circle
             style="fill:url(#linearGradient4207);fill-opacity:1;stroke:none"
             id="path14639"
             transform="translate(0,1028.3622)"
             cx="-110"
             cy="49"
             r="4" /><path
             id="path14641"
             transform="translate(0,1028.3622)"
             d="m -110,45 c -2.20914,0 -4,1.790861 -4,4 0,2.209139 1.79086,4 4,4 2.20914,0 4,-1.790861 4,-4 0,-2.209139 -1.79086,-4 -4,-4 z m 0,1 c 1.65685,0 3,1.343146 3,3 0,1.656854 -1.34315,2 -3,2 -1.65685,0 -3,-0.343146 -3,-2 0,-1.656854 1.34315,-3 3,-3 z"
             style="opacity:0.4;fill:#000000;fill-opacity:1;stroke:none"
             inkscape:connector-curvature="0"
             sodipodi:nodetypes="ssssssssss" /><path
             id="path14643"
             d="m -110,46 c -1.65685,0 -3,1.343146 -3,3 0,1.656854 1.34315,2 3,2 1.65685,0 3,-0.343146 3,-2 0,-1.656854 -1.34315,-3 -3,-3 z m 0,1 c 1.10457,0 2,0.895431 2,2 0,1.104569 -0.89543,1 -2,1 -1.10457,0 -2,0.104569 -2,-1 0,-1.104569 0.89543,-2 2,-2 z"
             style="opacity:0.4;fill:#ffffff;fill-opacity:1;stroke:none"
             inkscape:connector-curvature="0"
             transform="translate(0,1028.3622)"
             sodipodi:nodetypes="ssssssssss" /></g><path
           sodipodi:type="arc"
           style="opacity:0.2;fill:#ffffff;fill-opacity:1;stroke:none"
           id="path14585"
           sodipodi:cx="15"
           sodipodi:cy="14"
           sodipodi:rx="3"
           sodipodi:ry="3"
           d="m 18,14 a 3,3 0 0 1 -1.5,2.598076 3,3 0 0 1 -3,0 A 3,3 0 0 1 12,14 l 3,0 z"
           transform="matrix(0.55151432,-0.83416542,0.83416542,0.55151432,-6.9510307,1052.1535)"
           sodipodi:start="0"
           sodipodi:end="3.1415927"
           inkscape:transform-center-y="0.24893592"
           inkscape:transform-center-x="-0.67289324" /></g><g
         transform="matrix(1.7636396,0,0,1.7507089,380.73356,-1402.054)"
         id="g14542"><circle
           transform="translate(0,1028.3622)"
           id="path14544"
           style="fill:url(#linearGradient3906);fill-opacity:1;stroke:none"
           cx="-110"
           cy="49"
           r="4" /><path
           inkscape:connector-curvature="0"
           style="opacity:0.3;fill:#000000;fill-opacity:1;stroke:none"
           d="m -110,45 c -2.20914,0 -4,1.790861 -4,4 0,2.209139 1.79086,4 4,4 2.20914,0 4,-1.790861 4,-4 0,-2.209139 -1.79086,-4 -4,-4 z m 0,1 c 1.65685,0 3,1.343146 3,3 0,1.656854 -1.34315,1.997248 -3,1.997248 -1.65685,0 -3,-0.340394 -3,-1.997248 0,-1.656854 1.34315,-3 3,-3 z"
           id="path14546"
           transform="translate(0,1028.3622)"
           sodipodi:nodetypes="ssssssssss" /><path
           inkscape:connector-curvature="0"
           style="opacity:0.4;fill:#ffffff;fill-opacity:1;stroke:none"
           d="m -110,1074.3622 c -1.65685,0 -3,1.3432 -3,3 0,1.6569 1.34315,1.9972 3,1.9972 1.65685,0 3,-0.3403 3,-1.9972 0,-1.6568 -1.34315,-3 -3,-3 z m 0,1 c 1.10457,0 2,0.8955 2,2 0,1.1046 -0.89543,0.9973 -2,0.9973 -1.10457,0 -2,0.1073 -2,-0.9973 0,-1.1045 0.89543,-2 2,-2 z"
           id="path14548"
           sodipodi:nodetypes="ssssssssss" /></g><path
         sodipodi:type="arc"
         style="opacity:0.4;fill:#ffffff;fill-opacity:1;stroke:none"
         id="path14583"
         sodipodi:cx="-300.8161"
         sodipodi:cy="422.74301"
         sodipodi:rx="5.2665796"
         sodipodi:ry="5.2665796"
         d="m -295.54952,422.74301 a 5.2665796,5.2665796 0 0 1 -2.63329,4.56099 5.2665796,5.2665796 0 0 1 -5.26658,0 5.2665796,5.2665796 0 0 1 -2.63329,-4.56099 l 5.26658,0 z"
         transform="matrix(0.55151432,-0.83416543,0.83416543,0.55151432,0,0)"
         sodipodi:start="0"
         sodipodi:end="3.1415927"
         inkscape:transform-center-y="0.24893592"
         inkscape:transform-center-x="-0.67289324" /></g></g><path
     style="fill:#333333;fill-rule:evenodd;stroke:#333333;stroke-width:2.79393983;stroke-linecap:round;stroke-linejoin:miter;stroke-miterlimit:4;stroke-dasharray:none;stroke-opacity:1"
     d="M 23.700653,5.0317294 23.856684,43.9616"
     id="path4383"
     inkscape:connector-curvature="0" /></svg>