<?xml version="1.0" encoding="UTF-8" standalone="no"?>
<!-- Created with Inkscape (http://www.inkscape.org/) -->

<svg
   xmlns:dc="http://purl.org/dc/elements/1.1/"
   xmlns:cc="http://creativecommons.org/ns#"
   xmlns:rdf="http://www.w3.org/1999/02/22-rdf-syntax-ns#"
   xmlns:svg="http://www.w3.org/2000/svg"
   xmlns="http://www.w3.org/2000/svg"
   xmlns:xlink="http://www.w3.org/1999/xlink"
   xmlns:sodipodi="http://sodipodi.sourceforge.net/DTD/sodipodi-0.dtd"
   xmlns:inkscape="http://www.inkscape.org/namespaces/inkscape"
   width="48"
   height="48"
   id="svg2"
   version="1.1"
   inkscape:version="0.91 r13725"
   sodipodi:docname="transfers.svg"
   inkscape:export-filename="/home/alexander/libo/icon-themes/tango_testing/cmd/lc_numberformatcurrency.png"
   inkscape:export-xdpi="90"
   inkscape:export-ydpi="90">
  <defs
     id="defs4">
    <linearGradient
       inkscape:collect="always"
       id="linearGradient3858">
      <stop
         style="stop-color:#ffffff;stop-opacity:1;"
         offset="0"
         id="stop3860" />
      <stop
         style="stop-color:#ffffff;stop-opacity:0;"
         offset="1"
         id="stop3862" />
    </linearGradient>
    <linearGradient
       id="linearGradient14377">
      <stop
         style="stop-color:#cabb59;stop-opacity:1;"
         offset="0"
         id="stop14379" />
      <stop
         style="stop-color:#eed535;stop-opacity:1;"
         offset="1"
         id="stop14381" />
    </linearGradient>
    <linearGradient
       id="linearGradient14282">
      <stop
         style="stop-color:#b7dd93;stop-opacity:1;"
         offset="0"
         id="stop14284" />
      <stop
         id="stop14290"
         offset="0.5"
         style="stop-color:#a3d277;stop-opacity:1;" />
      <stop
         style="stop-color:#b6db92;stop-opacity:1;"
         offset="1"
         id="stop14286" />
    </linearGradient>
    <linearGradient
       id="linearGradient3801">
      <stop
         style="stop-color:#4e9a06;stop-opacity:1;"
         offset="0"
         id="stop3803" />
      <stop
         style="stop-color:#73d216;stop-opacity:1"
         offset="1"
         id="stop3805" />
    </linearGradient>
    <linearGradient
       inkscape:collect="always"
       xlink:href="#linearGradient3801"
       id="linearGradient14270"
       gradientUnits="userSpaceOnUse"
       x1="16.070213"
       y1="1031.785"
       x2="22.955807"
       y2="1025.0675" />
    <linearGradient
       inkscape:collect="always"
       xlink:href="#linearGradient14282"
       id="linearGradient14288"
       x1="-4.4525447"
       y1="1041.3625"
       x2="27.817404"
       y2="1041.3625"
       gradientUnits="userSpaceOnUse" />
    <linearGradient
       inkscape:collect="always"
       xlink:href="#linearGradient14377"
       id="linearGradient14398"
       gradientUnits="userSpaceOnUse"
       x1="-114"
       y1="49"
       x2="-106"
       y2="49" />
    <linearGradient
       inkscape:collect="always"
       xlink:href="#linearGradient14282"
       id="linearGradient14413"
       gradientUnits="userSpaceOnUse"
       x1="-4.4525447"
       y1="1041.3625"
       x2="27.817404"
       y2="1041.3625" />
    <linearGradient
       inkscape:collect="always"
       xlink:href="#linearGradient14377"
       id="linearGradient14423"
       gradientUnits="userSpaceOnUse"
       x1="-114"
       y1="49"
       x2="-106"
       y2="49" />
    <linearGradient
       inkscape:collect="always"
       xlink:href="#linearGradient14377"
       id="linearGradient14433"
       gradientUnits="userSpaceOnUse"
       x1="-114"
       y1="49"
       x2="-106"
       y2="49" />
    <linearGradient
       inkscape:collect="always"
       xlink:href="#linearGradient14377-8"
       id="linearGradient14439-2"
       gradientUnits="userSpaceOnUse"
       x1="-114"
       y1="49"
       x2="-106"
       y2="49" />
    <linearGradient
       id="linearGradient14377-8">
      <stop
         style="stop-color:#cabb59;stop-opacity:1;"
         offset="0"
         id="stop14379-4" />
      <stop
         style="stop-color:#eed535;stop-opacity:1;"
         offset="1"
         id="stop14381-1" />
    </linearGradient>
    <linearGradient
       inkscape:collect="always"
       xlink:href="#linearGradient14377-8"
       id="linearGradient14455"
       gradientUnits="userSpaceOnUse"
       x1="-114"
       y1="49"
       x2="-106"
       y2="49" />
    <linearGradient
       id="linearGradient14457">
      <stop
         style="stop-color:#cabb59;stop-opacity:1;"
         offset="0"
         id="stop14459" />
      <stop
         style="stop-color:#eed535;stop-opacity:1;"
         offset="1"
         id="stop14461" />
    </linearGradient>
    <linearGradient
       inkscape:collect="always"
       xlink:href="#linearGradient14377-8"
       id="linearGradient14463"
       gradientUnits="userSpaceOnUse"
       x1="-114"
       y1="49"
       x2="-106"
       y2="49" />
    <linearGradient
       id="linearGradient14465">
      <stop
         style="stop-color:#cabb59;stop-opacity:1;"
         offset="0"
         id="stop14467" />
      <stop
         style="stop-color:#eed535;stop-opacity:1;"
         offset="1"
         id="stop14469" />
    </linearGradient>
    <linearGradient
       inkscape:collect="always"
       xlink:href="#linearGradient14377"
       id="linearGradient14526"
       gradientUnits="userSpaceOnUse"
       x1="-114"
       y1="49"
       x2="-106"
       y2="49" />
    <linearGradient
       inkscape:collect="always"
       xlink:href="#linearGradient14377"
       id="linearGradient14550"
       gradientUnits="userSpaceOnUse"
       x1="-114"
       y1="49"
       x2="-106"
       y2="49" />
    <linearGradient
       inkscape:collect="always"
       xlink:href="#linearGradient14282"
       id="linearGradient14565"
       gradientUnits="userSpaceOnUse"
       x1="-4.4525447"
       y1="1041.3625"
       x2="27.817404"
       y2="1041.3625"
       gradientTransform="translate(0,-5)" />
    <linearGradient
       inkscape:collect="always"
       xlink:href="#linearGradient14377"
       id="linearGradient14581"
       gradientUnits="userSpaceOnUse"
       x1="-114"
       y1="49"
       x2="-106"
       y2="49" />
    <linearGradient
       inkscape:collect="always"
       xlink:href="#linearGradient14377"
       id="linearGradient14615"
       gradientUnits="userSpaceOnUse"
       x1="-114"
       y1="49"
       x2="-106"
       y2="49" />
    <linearGradient
       inkscape:collect="always"
       xlink:href="#linearGradient14377"
       id="linearGradient14625"
       gradientUnits="userSpaceOnUse"
       x1="-114"
       y1="49"
       x2="-106"
       y2="49" />
    <linearGradient
       inkscape:collect="always"
       xlink:href="#linearGradient14377"
       id="linearGradient14635"
       gradientUnits="userSpaceOnUse"
       x1="-114"
       y1="49"
       x2="-106"
       y2="49" />
    <linearGradient
       inkscape:collect="always"
       xlink:href="#linearGradient14377"
       id="linearGradient14645"
       gradientUnits="userSpaceOnUse"
       x1="-114"
       y1="49"
       x2="-106"
       y2="49" />
    <linearGradient
       inkscape:collect="always"
       xlink:href="#linearGradient14282"
       id="linearGradient3856"
       gradientUnits="userSpaceOnUse"
       x1="2"
       y1="1035.3622"
       x2="23"
       y2="1035.3622" />
    <linearGradient
       inkscape:collect="always"
       xlink:href="#linearGradient3858"
       id="linearGradient3864"
       x1="4.625"
       y1="0.24999999"
       x2="20.125"
       y2="16"
       gradientUnits="userSpaceOnUse" />
    <filter
       inkscape:collect="always"
       id="filter3900"
       x="-0.12"
       width="1.24"
       y="-0.12"
       height="1.24">
      <feGaussianBlur
         inkscape:collect="always"
         stdDeviation="0.4"
         id="feGaussianBlur3902" />
    </filter>
    <linearGradient
       inkscape:collect="always"
       xlink:href="#linearGradient14377"
       id="linearGradient3906"
       gradientUnits="userSpaceOnUse"
       x1="-114"
       y1="49"
       x2="-106"
       y2="49" />
    <filter
       inkscape:collect="always"
       id="filter3928"
       x="-0.097431675"
       width="1.1948634"
       y="-0.11880784"
       height="1.2376157">
      <feGaussianBlur
         inkscape:collect="always"
         stdDeviation="0.39218257"
         id="feGaussianBlur3930" />
    </filter>
    <linearGradient
       id="linearGradient3827">
      <stop
         style="stop-color:#cc0001;stop-opacity:1"
         offset="0"
         id="stop3829" />
      <stop
         style="stop-color:#ef292a;stop-opacity:1"
         offset="1"
         id="stop3831" />
    </linearGradient>
    <linearGradient
       id="linearGradient12512">
      <stop
         style="stop-color:#ffffff;stop-opacity:1.0000000;"
         offset="0.0000000"
         id="stop12513" />
      <stop
         style="stop-color:#fff520;stop-opacity:0.89108908;"
         offset="0.50000000"
         id="stop12517" />
      <stop
         style="stop-color:#fff300;stop-opacity:0.0000000;"
         offset="1.0000000"
         id="stop12514" />
    </linearGradient>
    <linearGradient
       id="linearGradient2831">
      <stop
         style="stop-color:#3465a4;stop-opacity:1;"
         offset="0"
         id="stop2833" />
      <stop
         id="stop2855"
         offset="0.33333334"
         style="stop-color:#5b86be;stop-opacity:1;" />
      <stop
         style="stop-color:#83a8d8;stop-opacity:0;"
         offset="1"
         id="stop2835" />
    </linearGradient>
    <linearGradient
       inkscape:collect="always"
       id="linearGradient2847">
      <stop
         style="stop-color:#3465a4;stop-opacity:1;"
         offset="0"
         id="stop2849" />
      <stop
         style="stop-color:#3465a4;stop-opacity:0;"
         offset="1"
         id="stop2851" />
    </linearGradient>
    <linearGradient
       inkscape:collect="always"
       xlink:href="#linearGradient2380"
       id="linearGradient2386"
       x1="62.513836"
       y1="36.061237"
       x2="15.984863"
       y2="20.60858"
       gradientUnits="userSpaceOnUse" />
    <linearGradient
       id="linearGradient2380">
      <stop
         style="stop-color:#b9cfe7;stop-opacity:1"
         offset="0"
         id="stop2382" />
      <stop
         style="stop-color:#729fcf;stop-opacity:1"
         offset="1"
         id="stop2384" />
    </linearGradient>
    <linearGradient
       inkscape:collect="always"
       xlink:href="#linearGradient2847"
       id="linearGradient1501"
       gradientUnits="userSpaceOnUse"
       x1="46.834816"
       y1="45.264122"
       x2="45.380436"
       y2="50.939667" />
    <linearGradient
       inkscape:collect="always"
       xlink:href="#linearGradient3858"
       id="linearGradient1491"
       gradientUnits="userSpaceOnUse"
       x1="5.9649177"
       y1="26.048164"
       x2="52.854095"
       y2="26.048164" />
    <linearGradient
       inkscape:collect="always"
       xlink:href="#linearGradient2380"
       id="linearGradient4898"
       gradientUnits="userSpaceOnUse"
       x1="62.513836"
       y1="36.061237"
       x2="15.984863"
       y2="20.60858" />
  </defs>
  <sodipodi:namedview
     id="base"
     pagecolor="#ffffff"
     bordercolor="#666666"
     borderopacity="1.0"
     inkscape:pageopacity="0.0"
     inkscape:pageshadow="2"
     inkscape:zoom="4"
     inkscape:cx="12.243095"
     inkscape:cy="48.995025"
     inkscape:document-units="px"
     inkscape:current-layer="layer1"
     showgrid="false"
     inkscape:snap-global="true"
     showborder="true"
     borderlayer="false"
     inkscape:showpageshadow="false"
     inkscape:window-width="1221"
     inkscape:window-height="703"
     inkscape:window-x="143"
     inkscape:window-y="42"
     inkscape:window-maximized="0"
     fit-margin-top="0"
     fit-margin-left="0"
     fit-margin-right="0"
     fit-margin-bottom="0">
    <inkscape:grid
       type="xygrid"
       id="grid2996"
       empspacing="5"
       visible="true"
       enabled="true"
       snapvisiblegridlinesonly="true"
       originx="184"
       originy="549.3222" />
  </sodipodi:namedview>
  <metadata
     id="metadata7">
    <rdf:RDF>
      <cc:Work
         rdf:about="">
        <dc:format>image/svg+xml</dc:format>
        <dc:type
           rdf:resource="http://purl.org/dc/dcmitype/StillImage" />
        <dc:title />
      </cc:Work>
    </rdf:RDF>
  </metadata>
  <g
     inkscape:label="Ebene 1"
     inkscape:groupmode="layer"
     id="layer1"
     transform="translate(0,-1003.3222)">
    <path
       inkscape:connector-curvature="0"
       style="fill:#abd783;fill-opacity:1;stroke:none"
       d="m 44.164033,1018.7929 0,17.5553 c -1.755527,1.7555 -3.511054,1.7555 -7.022107,1.7555 l -29.8439519,0 0,-17.5552 29.8439519,0 c 3.511053,0 5.26658,0 7.022107,-1.7556 z"
       id="rect14308"
       sodipodi:nodetypes="ccsccsc" />
    <path
       inkscape:connector-curvature="0"
       style="opacity:0.4;fill:#000000;fill-opacity:1;stroke:none"
       d="m 44.164033,1018.7929 0,17.5553 c -1.755527,1.7555 -3.511054,1.7555 -7.022107,1.7555 l -29.8439519,0 0,-17.5552 29.8439519,0 c 3.511053,0 5.26658,0 7.022107,-1.7556 z m -1.755527,3.5111 c -1.755527,0 -3.171917,0 -6.363784,0 l -26.9912213,0 0,14.0442 26.9912213,0 c 3.191867,0 4.608257,0 6.363784,-1.7555 z"
       id="path14313"
       sodipodi:nodetypes="ccsccsccsccscc" />
    <g
       id="use14538"
       transform="matrix(1.7636396,0,0,1.7507089,216.99108,-847.0951)">
      <circle
         style="fill:url(#linearGradient14635);fill-opacity:1;stroke:none"
         id="path14629"
         transform="translate(0,1028.3622)"
         cx="-110"
         cy="49"
         r="4" />
      <path
         id="path14631"
         transform="translate(0,1028.3622)"
         d="m -110,45 c -2.20914,0 -4,1.790861 -4,4 0,2.209139 1.79086,4 4,4 2.20914,0 4,-1.790861 4,-4 0,-2.209139 -1.79086,-4 -4,-4 z m 0,1 c 1.65685,0 3,1.343146 3,3 0,1.656854 -1.34315,2.466324 -3,2.466324 -1.65685,0 -3,-0.80947 -3,-2.466324 0,-1.656854 1.34315,-3 3,-3 z"
         style="opacity:0.4;fill:#000000;fill-opacity:1;stroke:none"
         inkscape:connector-curvature="0"
         sodipodi:nodetypes="ssssssssss" />
      <path
         id="path14633"
         d="m -110,46 c -1.65685,0 -3,1.343146 -3,3 0,1.656854 1.34315,2.466324 3,2.466324 1.65685,0 3,-0.80947 3,-2.466324 0,-1.656854 -1.34315,-3 -3,-3 z m 0,1 c 1.10457,0 2,0.895431 2,2 0,1.104569 -0.89543,1.466324 -2,1.466324 -1.10457,0 -2,-0.361755 -2,-1.466324 0,-1.104569 0.89543,-2 2,-2 z"
         style="opacity:0.4;fill:#ffffff;fill-opacity:1;stroke:none"
         inkscape:connector-curvature="0"
         transform="translate(0,1028.3622)"
         sodipodi:nodetypes="ssssssssss" />
    </g>
    <circle
       transform="matrix(1.7555266,0,0,1.7555266,0.2758677,1017.0374)"
       id="path3904"
       style="opacity:0.3;fill:#000000;fill-opacity:1;stroke:none;filter:url(#filter3900)"
       cx="15"
       cy="14"
       r="4" />
    <g
       id="g3851"
       transform="matrix(1.7555266,0,0,1.7555266,0.2758677,-791.79083)">
      <rect
         y="1030.3622"
         x="2"
         height="10"
         width="21"
         id="rect3055"
         style="fill:url(#linearGradient3856);fill-opacity:1;stroke:none" />
      <path
         transform="translate(0,1028.3622)"
         id="rect3833"
         d="M 2,2 2,12 23,12 23,2 2,2 Z m 1,1 19,0 0,8 -19,0 0,-8 z"
         style="opacity:0.3;fill:#000000;fill-opacity:1;stroke:none"
         inkscape:connector-curvature="0" />
      <path
         id="rect3842"
         transform="translate(0,1028.3622)"
         d="M 3,3 3,11 22,11 22,3 3,3 Z M 4,4 21,4 21,10 4,10 4,4 Z"
         style="opacity:0.4;fill:url(#linearGradient3864);fill-opacity:1;stroke:none"
         inkscape:connector-curvature="0" />
    </g>
    <ellipse
       style="opacity:0.25;fill:#000000;fill-opacity:1;stroke:none;filter:url(#filter3928)"
       id="path3908"
       transform="matrix(1.542769,-0.83769764,0.83769767,1.5427691,-4.7662959,1022.8714)"
       cx="12.705825"
       cy="14.409864"
       rx="5.1486211"
       ry="3.5355339" />
    <circle
       style="opacity:0.3;fill:#000000;fill-opacity:1;stroke:none;filter:url(#filter3900)"
       id="path3890"
       transform="matrix(1.7555266,0,0,1.9749674,3.7869209,1007.8209)"
       cx="15"
       cy="14"
       r="4" />
    <g
       id="g14571"
       transform="matrix(1.7555266,0,0,1.7555266,-0.44883124,-823.25341)">
      <g
         id="g3866"
         transform="matrix(1.0520833,0,0,1,0.28781,15.922019)">
        <ellipse
           style="opacity:0.2;fill:#000000;fill-opacity:1;stroke:none"
           id="path14339"
           transform="matrix(1.2,0,0,1.2,0,995.9622)"
           cx="10"
           cy="34.5"
           rx="2"
           ry="2.5" />
        <circle
           style="opacity:0.5;fill:#a4d379;fill-opacity:1;stroke:none"
           id="path14341"
           transform="matrix(0.46534652,0,0,1,7.3465349,1002.3622)"
           cx="10"
           cy="34"
           r="1" />
      </g>
      <ellipse
         transform="matrix(0.5,0,0,0.4,14.4375,1038.4997)"
         id="path14351"
         style="opacity:0.2;fill:#000000;fill-opacity:1;stroke:none"
         cx="10"
         cy="34.5"
         rx="2"
         ry="2.5" />
      <ellipse
         style="opacity:0.2;fill:#000000;fill-opacity:1;stroke:none"
         id="path3870"
         transform="matrix(0.5,0,0,0.4,1.4375,1038.4997)"
         cx="10"
         cy="34.5"
         rx="2"
         ry="2.5" />
    </g>
    <g
       id="g14603"
       transform="matrix(1.7555266,0,0,1.7555266,3.8228165,-797.05428)">
      <g
         id="use14540"
         transform="matrix(1.0046214,0,0,0.9972557,123.48791,-27.039689)">
        <circle
           style="fill:url(#linearGradient14645);fill-opacity:1;stroke:none"
           id="path14639"
           transform="translate(0,1028.3622)"
           cx="-110"
           cy="49"
           r="4" />
        <path
           id="path14641"
           transform="translate(0,1028.3622)"
           d="m -110,45 c -2.20914,0 -4,1.790861 -4,4 0,2.209139 1.79086,4 4,4 2.20914,0 4,-1.790861 4,-4 0,-2.209139 -1.79086,-4 -4,-4 z m 0,1 c 1.65685,0 3,1.343146 3,3 0,1.656854 -1.34315,2 -3,2 -1.65685,0 -3,-0.343146 -3,-2 0,-1.656854 1.34315,-3 3,-3 z"
           style="opacity:0.4;fill:#000000;fill-opacity:1;stroke:none"
           inkscape:connector-curvature="0"
           sodipodi:nodetypes="ssssssssss" />
        <path
           id="path14643"
           d="m -110,46 c -1.65685,0 -3,1.343146 -3,3 0,1.656854 1.34315,2 3,2 1.65685,0 3,-0.343146 3,-2 0,-1.656854 -1.34315,-3 -3,-3 z m 0,1 c 1.10457,0 2,0.895431 2,2 0,1.104569 -0.89543,1 -2,1 -1.10457,0 -2,0.104569 -2,-1 0,-1.104569 0.89543,-2 2,-2 z"
           style="opacity:0.4;fill:#ffffff;fill-opacity:1;stroke:none"
           inkscape:connector-curvature="0"
           transform="translate(0,1028.3622)"
           sodipodi:nodetypes="ssssssssss" />
      </g>
      <path
         sodipodi:type="arc"
         style="opacity:0.2;fill:#ffffff;fill-opacity:1;stroke:none"
         id="path14585"
         sodipodi:cx="15"
         sodipodi:cy="14"
         sodipodi:rx="3"
         sodipodi:ry="3"
         d="m 18,14 a 3,3 0 0 1 -1.5,2.598076 3,3 0 0 1 -3,0 A 3,3 0 0 1 12,14 l 3,0 z"
         transform="matrix(0.55151432,-0.83416542,0.83416542,0.55151432,-6.9510307,1052.1535)"
         sodipodi:start="0"
         sodipodi:end="3.1415927"
         inkscape:transform-center-y="0.24893592"
         inkscape:transform-center-x="-0.67289324" />
    </g>
    <g
       transform="matrix(1.7636396,0,0,1.7507089,224.12017,-851.54046)"
       id="g14542">
      <circle
         transform="translate(0,1028.3622)"
         id="path14544"
         style="fill:url(#linearGradient3906);fill-opacity:1;stroke:none"
         cx="-110"
         cy="49"
         r="4" />
      <path
         inkscape:connector-curvature="0"
         style="opacity:0.3;fill:#000000;fill-opacity:1;stroke:none"
         d="m -110,45 c -2.20914,0 -4,1.790861 -4,4 0,2.209139 1.79086,4 4,4 2.20914,0 4,-1.790861 4,-4 0,-2.209139 -1.79086,-4 -4,-4 z m 0,1 c 1.65685,0 3,1.343146 3,3 0,1.656854 -1.34315,1.997248 -3,1.997248 -1.65685,0 -3,-0.340394 -3,-1.997248 0,-1.656854 1.34315,-3 3,-3 z"
         id="path14546"
         transform="translate(0,1028.3622)"
         sodipodi:nodetypes="ssssssssss" />
      <path
         inkscape:connector-curvature="0"
         style="opacity:0.4;fill:#ffffff;fill-opacity:1;stroke:none"
         d="m -110,1074.3622 c -1.65685,0 -3,1.3432 -3,3 0,1.6569 1.34315,1.9972 3,1.9972 1.65685,0 3,-0.3403 3,-1.9972 0,-1.6568 -1.34315,-3 -3,-3 z m 0,1 c 1.10457,0 2,0.8955 2,2 0,1.1046 -0.89543,0.9973 -2,0.9973 -1.10457,0 -2,0.1073 -2,-0.9973 0,-1.1045 0.89543,-2 2,-2 z"
         id="path14548"
         sodipodi:nodetypes="ssssssssss" />
    </g>
    <path
       sodipodi:type="arc"
       style="opacity:0.4;fill:#ffffff;fill-opacity:1;stroke:none"
       id="path14583"
       sodipodi:cx="-846.40991"
       sodipodi:cy="595.71759"
       sodipodi:rx="5.2665796"
       sodipodi:ry="5.2665796"
       d="m -841.14333,595.71759 a 5.2665796,5.2665796 0 0 1 -2.63329,4.56099 5.2665796,5.2665796 0 0 1 -5.26658,0 5.2665796,5.2665796 0 0 1 -2.63329,-4.56099 l 5.26658,0 z"
       transform="matrix(0.55151432,-0.83416543,0.83416543,0.55151432,0,0)"
       sodipodi:start="0"
       sodipodi:end="3.1415927"
       inkscape:transform-center-y="0.24893592"
       inkscape:transform-center-x="-0.67289324" />
    <g
       id="g1878"
       transform="matrix(-0.45055031,-0.41967373,-0.38066047,0.49672646,43.674782,1016.6469)"
       inkscape:r_cx="true"
       inkscape:r_cy="true"
       style="fill:url(#linearGradient2386);fill-opacity:1;stroke:#3465a4;stroke-opacity:1">
      <path
         inkscape:connector-curvature="0"
         sodipodi:nodetypes="ccccccc"
         id="path1880"
         d="M 44.306783,50.229694 C 62.821497,35.818859 49.664587,13.411704 22.462411,12.49765 L 22.113843,3.1515478 7.6245439,20.496754 22.714328,33.219189 c 0,0 -0.251917,-9.88122 -0.251917,-9.88122 18.82976,0.998977 32.981627,14.071729 21.844372,26.891725 z"
         style="color:#000000;display:block;overflow:visible;visibility:visible;opacity:1;fill:url(#linearGradient4898);fill-opacity:1;fill-rule:nonzero;stroke:url(#linearGradient1501);stroke-width:1.31916928;stroke-linecap:butt;stroke-linejoin:miter;stroke-miterlimit:4;stroke-dasharray:none;stroke-dashoffset:0;stroke-opacity:1;marker:none;marker-start:none;marker-mid:none;marker-end:none"
         inkscape:r_cx="true"
         inkscape:r_cy="true" />
    </g>
    <g
       style="opacity:0.5;fill:none;fill-opacity:1;stroke:#ffffff;stroke-opacity:1"
       inkscape:r_cy="true"
       inkscape:r_cx="true"
       transform="matrix(-0.39568371,-0.36856688,-0.33430456,0.43623668,40.666048,1016.6418)"
       id="g2805">
      <path
         inkscape:connector-curvature="0"
         inkscape:r_cy="true"
         inkscape:r_cx="true"
         style="color:#000000;display:block;overflow:visible;visibility:visible;opacity:1;fill:none;fill-opacity:1;fill-rule:nonzero;stroke:url(#linearGradient1491);stroke-width:1.50208926;stroke-linecap:butt;stroke-linejoin:miter;stroke-miterlimit:4;stroke-dasharray:none;stroke-dashoffset:0;stroke-opacity:1;marker:none;marker-start:none;marker-mid:none;marker-end:none"
         d="M 51.389927,46.505946 C 60.510127,31.286196 47.050763,12.432359 19.628482,12.069755 L 19.342824,4.0507204 6.3413093,19.379475 19.809059,30.764589 c 0,0 -0.181765,-9.453243 -0.181765,-9.453243 18.244937,0.381972 34.783881,10.925246 31.762633,25.1946 z"
         id="path2807"
         sodipodi:nodetypes="ccccccc" />
    </g>
  </g>
</svg>
