<?xml version="1.0" encoding="UTF-8" standalone="no"?>
<!-- Created with Inkscape (http://www.inkscape.org/) -->

<svg
   xmlns:dc="http://purl.org/dc/elements/1.1/"
   xmlns:cc="http://creativecommons.org/ns#"
   xmlns:rdf="http://www.w3.org/1999/02/22-rdf-syntax-ns#"
   xmlns:svg="http://www.w3.org/2000/svg"
   xmlns="http://www.w3.org/2000/svg"
   xmlns:xlink="http://www.w3.org/1999/xlink"
   xmlns:sodipodi="http://sodipodi.sourceforge.net/DTD/sodipodi-0.dtd"
   xmlns:inkscape="http://www.inkscape.org/namespaces/inkscape"
   width="48"
   height="48"
   id="svg2"
   version="1.1"
   inkscape:version="0.91 r13725"
   sodipodi:docname="expenses.svg"
   inkscape:export-filename="/home/alexander/libo/icon-themes/tango_testing/cmd/lc_numberformatcurrency.png"
   inkscape:export-xdpi="90"
   inkscape:export-ydpi="90">
  <defs
     id="defs4">
    <linearGradient
       inkscape:collect="always"
       id="linearGradient3858">
      <stop
         style="stop-color:#ffffff;stop-opacity:1;"
         offset="0"
         id="stop3860" />
      <stop
         style="stop-color:#ffffff;stop-opacity:0;"
         offset="1"
         id="stop3862" />
    </linearGradient>
    <linearGradient
       id="linearGradient14377">
      <stop
         style="stop-color:#cabb59;stop-opacity:1;"
         offset="0"
         id="stop14379" />
      <stop
         style="stop-color:#eed535;stop-opacity:1;"
         offset="1"
         id="stop14381" />
    </linearGradient>
    <linearGradient
       id="linearGradient14282">
      <stop
         style="stop-color:#b7dd93;stop-opacity:1;"
         offset="0"
         id="stop14284" />
      <stop
         id="stop14290"
         offset="0.5"
         style="stop-color:#a3d277;stop-opacity:1;" />
      <stop
         style="stop-color:#b6db92;stop-opacity:1;"
         offset="1"
         id="stop14286" />
    </linearGradient>
    <linearGradient
       id="linearGradient3801">
      <stop
         style="stop-color:#4e9a06;stop-opacity:1;"
         offset="0"
         id="stop3803" />
      <stop
         style="stop-color:#73d216;stop-opacity:1"
         offset="1"
         id="stop3805" />
    </linearGradient>
    <linearGradient
       inkscape:collect="always"
       xlink:href="#linearGradient3801"
       id="linearGradient14270"
       gradientUnits="userSpaceOnUse"
       x1="16.070213"
       y1="1031.785"
       x2="22.955807"
       y2="1025.0675" />
    <linearGradient
       inkscape:collect="always"
       xlink:href="#linearGradient14282"
       id="linearGradient14288"
       x1="-4.4525447"
       y1="1041.3625"
       x2="27.817404"
       y2="1041.3625"
       gradientUnits="userSpaceOnUse" />
    <linearGradient
       inkscape:collect="always"
       xlink:href="#linearGradient14377"
       id="linearGradient14398"
       gradientUnits="userSpaceOnUse"
       x1="-114"
       y1="49"
       x2="-106"
       y2="49" />
    <linearGradient
       inkscape:collect="always"
       xlink:href="#linearGradient14282"
       id="linearGradient14413"
       gradientUnits="userSpaceOnUse"
       x1="-4.4525447"
       y1="1041.3625"
       x2="27.817404"
       y2="1041.3625" />
    <linearGradient
       inkscape:collect="always"
       xlink:href="#linearGradient14377"
       id="linearGradient14423"
       gradientUnits="userSpaceOnUse"
       x1="-114"
       y1="49"
       x2="-106"
       y2="49" />
    <linearGradient
       inkscape:collect="always"
       xlink:href="#linearGradient14377"
       id="linearGradient14433"
       gradientUnits="userSpaceOnUse"
       x1="-114"
       y1="49"
       x2="-106"
       y2="49" />
    <linearGradient
       inkscape:collect="always"
       xlink:href="#linearGradient14377-8"
       id="linearGradient14439-2"
       gradientUnits="userSpaceOnUse"
       x1="-114"
       y1="49"
       x2="-106"
       y2="49" />
    <linearGradient
       id="linearGradient14377-8">
      <stop
         style="stop-color:#cabb59;stop-opacity:1;"
         offset="0"
         id="stop14379-4" />
      <stop
         style="stop-color:#eed535;stop-opacity:1;"
         offset="1"
         id="stop14381-1" />
    </linearGradient>
    <linearGradient
       inkscape:collect="always"
       xlink:href="#linearGradient14377-8"
       id="linearGradient14455"
       gradientUnits="userSpaceOnUse"
       x1="-114"
       y1="49"
       x2="-106"
       y2="49" />
    <linearGradient
       id="linearGradient14457">
      <stop
         style="stop-color:#cabb59;stop-opacity:1;"
         offset="0"
         id="stop14459" />
      <stop
         style="stop-color:#eed535;stop-opacity:1;"
         offset="1"
         id="stop14461" />
    </linearGradient>
    <linearGradient
       inkscape:collect="always"
       xlink:href="#linearGradient14377-8"
       id="linearGradient14463"
       gradientUnits="userSpaceOnUse"
       x1="-114"
       y1="49"
       x2="-106"
       y2="49" />
    <linearGradient
       id="linearGradient14465">
      <stop
         style="stop-color:#cabb59;stop-opacity:1;"
         offset="0"
         id="stop14467" />
      <stop
         style="stop-color:#eed535;stop-opacity:1;"
         offset="1"
         id="stop14469" />
    </linearGradient>
    <linearGradient
       inkscape:collect="always"
       xlink:href="#linearGradient14377"
       id="linearGradient14526"
       gradientUnits="userSpaceOnUse"
       x1="-114"
       y1="49"
       x2="-106"
       y2="49" />
    <linearGradient
       inkscape:collect="always"
       xlink:href="#linearGradient14377"
       id="linearGradient14550"
       gradientUnits="userSpaceOnUse"
       x1="-114"
       y1="49"
       x2="-106"
       y2="49" />
    <linearGradient
       inkscape:collect="always"
       xlink:href="#linearGradient14282"
       id="linearGradient14565"
       gradientUnits="userSpaceOnUse"
       x1="-4.4525447"
       y1="1041.3625"
       x2="27.817404"
       y2="1041.3625"
       gradientTransform="translate(0,-5)" />
    <linearGradient
       inkscape:collect="always"
       xlink:href="#linearGradient14377"
       id="linearGradient14581"
       gradientUnits="userSpaceOnUse"
       x1="-114"
       y1="49"
       x2="-106"
       y2="49" />
    <linearGradient
       inkscape:collect="always"
       xlink:href="#linearGradient14377"
       id="linearGradient14615"
       gradientUnits="userSpaceOnUse"
       x1="-114"
       y1="49"
       x2="-106"
       y2="49" />
    <linearGradient
       inkscape:collect="always"
       xlink:href="#linearGradient14377"
       id="linearGradient14625"
       gradientUnits="userSpaceOnUse"
       x1="-114"
       y1="49"
       x2="-106"
       y2="49" />
    <linearGradient
       inkscape:collect="always"
       xlink:href="#linearGradient14377"
       id="linearGradient14635"
       gradientUnits="userSpaceOnUse"
       x1="-114"
       y1="49"
       x2="-106"
       y2="49" />
    <linearGradient
       inkscape:collect="always"
       xlink:href="#linearGradient14377"
       id="linearGradient14645"
       gradientUnits="userSpaceOnUse"
       x1="-114"
       y1="49"
       x2="-106"
       y2="49" />
    <linearGradient
       inkscape:collect="always"
       xlink:href="#linearGradient14282"
       id="linearGradient3856"
       gradientUnits="userSpaceOnUse"
       x1="2"
       y1="1035.3622"
       x2="23"
       y2="1035.3622" />
    <linearGradient
       inkscape:collect="always"
       xlink:href="#linearGradient3858"
       id="linearGradient3864"
       x1="4.625"
       y1="0.24999999"
       x2="20.125"
       y2="16"
       gradientUnits="userSpaceOnUse" />
    <filter
       inkscape:collect="always"
       id="filter3900"
       x="-0.12"
       width="1.24"
       y="-0.12"
       height="1.24">
      <feGaussianBlur
         inkscape:collect="always"
         stdDeviation="0.4"
         id="feGaussianBlur3902" />
    </filter>
    <linearGradient
       inkscape:collect="always"
       xlink:href="#linearGradient14377"
       id="linearGradient3906"
       gradientUnits="userSpaceOnUse"
       x1="-114"
       y1="49"
       x2="-106"
       y2="49" />
    <filter
       inkscape:collect="always"
       id="filter3928"
       x="-0.097431675"
       width="1.1948634"
       y="-0.11880784"
       height="1.2376157">
      <feGaussianBlur
         inkscape:collect="always"
         stdDeviation="0.39218257"
         id="feGaussianBlur3930" />
    </filter>
    <linearGradient
       gradientTransform="matrix(1.7884615,0,0,1.7884615,1.9999997,983.45679)"
       inkscape:collect="always"
       xlink:href="#linearGradient3827"
       id="linearGradient3833"
       x1="5.0000005"
       y1="20.999971"
       x2="5.0000005"
       y2="15.999972"
       gradientUnits="userSpaceOnUse" />
    <linearGradient
       id="linearGradient3827">
      <stop
         style="stop-color:#cc0001;stop-opacity:1"
         offset="0"
         id="stop3829" />
      <stop
         style="stop-color:#ef292a;stop-opacity:1"
         offset="1"
         id="stop3831" />
    </linearGradient>
  </defs>
  <sodipodi:namedview
     id="base"
     pagecolor="#ffffff"
     bordercolor="#666666"
     borderopacity="1.0"
     inkscape:pageopacity="0.0"
     inkscape:pageshadow="2"
     inkscape:zoom="4"
     inkscape:cx="12.243095"
     inkscape:cy="48.995025"
     inkscape:document-units="px"
     inkscape:current-layer="layer1"
     showgrid="false"
     inkscape:snap-global="true"
     showborder="true"
     borderlayer="false"
     inkscape:showpageshadow="false"
     inkscape:window-width="1221"
     inkscape:window-height="703"
     inkscape:window-x="143"
     inkscape:window-y="42"
     inkscape:window-maximized="0"
     fit-margin-top="0"
     fit-margin-left="0"
     fit-margin-right="0"
     fit-margin-bottom="0">
    <inkscape:grid
       type="xygrid"
       id="grid2996"
       empspacing="5"
       visible="true"
       enabled="true"
       snapvisiblegridlinesonly="true"
       originx="184"
       originy="549.3222" />
  </sodipodi:namedview>
  <metadata
     id="metadata7">
    <rdf:RDF>
      <cc:Work
         rdf:about="">
        <dc:format>image/svg+xml</dc:format>
        <dc:type
           rdf:resource="http://purl.org/dc/dcmitype/StillImage" />
        <dc:title />
      </cc:Work>
    </rdf:RDF>
  </metadata>
  <g
     inkscape:label="Ebene 1"
     inkscape:groupmode="layer"
     id="layer1"
     transform="translate(0,-1003.3222)">
    <g
       id="g4243"
       transform="matrix(1.7555266,0,0,1.7555266,3.7869209,-795.30188)">
      <path
         sodipodi:nodetypes="ccsccsc"
         id="rect14308"
         d="m 23,1033.3622 0,10 c -1,1 -2,1 -4,1 l -17,0 0,-10 17,0 c 2,0 3,0 4,-1 z"
         style="fill:#abd783;fill-opacity:1;stroke:none"
         inkscape:connector-curvature="0" />
      <path
         sodipodi:nodetypes="ccsccsccsccscc"
         id="path14313"
         d="m 23,1033.3622 0,10 c -1,1 -2,1 -4,1 l -17,0 0,-10 17,0 c 2,0 3,0 4,-1 z m -1,2 c -1,0 -1.806818,0 -3.625,0 l -15.375,0 0,8 15.375,0 c 1.818182,0 2.625,0 3.625,-1 z"
         style="opacity:0.4;fill:#000000;fill-opacity:1;stroke:none"
         inkscape:connector-curvature="0" />
      <g
         transform="matrix(1.0046214,0,0,0.9972557,121.44741,-29.502951)"
         id="use14538">
        <circle
           r="4"
           cy="49"
           cx="-110"
           transform="translate(0,1028.3622)"
           id="path14629"
           style="fill:url(#linearGradient14635);fill-opacity:1;stroke:none" />
        <path
           sodipodi:nodetypes="ssssssssss"
           inkscape:connector-curvature="0"
           style="opacity:0.4;fill:#000000;fill-opacity:1;stroke:none"
           d="m -110,45 c -2.20914,0 -4,1.790861 -4,4 0,2.209139 1.79086,4 4,4 2.20914,0 4,-1.790861 4,-4 0,-2.209139 -1.79086,-4 -4,-4 z m 0,1 c 1.65685,0 3,1.343146 3,3 0,1.656854 -1.34315,2.466324 -3,2.466324 -1.65685,0 -3,-0.80947 -3,-2.466324 0,-1.656854 1.34315,-3 3,-3 z"
           transform="translate(0,1028.3622)"
           id="path14631" />
        <path
           sodipodi:nodetypes="ssssssssss"
           transform="translate(0,1028.3622)"
           inkscape:connector-curvature="0"
           style="opacity:0.4;fill:#ffffff;fill-opacity:1;stroke:none"
           d="m -110,46 c -1.65685,0 -3,1.343146 -3,3 0,1.656854 1.34315,2.466324 3,2.466324 1.65685,0 3,-0.80947 3,-2.466324 0,-1.656854 -1.34315,-3 -3,-3 z m 0,1 c 1.10457,0 2,0.895431 2,2 0,1.104569 -0.89543,1.466324 -2,1.466324 -1.10457,0 -2,-0.361755 -2,-1.466324 0,-1.104569 0.89543,-2 2,-2 z"
           id="path14633" />
      </g>
      <circle
         r="4"
         cy="14"
         cx="15"
         style="opacity:0.3;fill:#000000;fill-opacity:1;stroke:none;filter:url(#filter3900)"
         id="path3904"
         transform="translate(-2,1032.3622)" />
      <g
         transform="translate(-2,2)"
         id="g3851">
        <rect
           style="fill:url(#linearGradient3856);fill-opacity:1;stroke:none"
           id="rect3055"
           width="21"
           height="10"
           x="2"
           y="1030.3622" />
        <path
           inkscape:connector-curvature="0"
           style="opacity:0.3;fill:#000000;fill-opacity:1;stroke:none"
           d="M 2,2 2,12 23,12 23,2 2,2 Z m 1,1 19,0 0,8 -19,0 0,-8 z"
           id="rect3833"
           transform="translate(0,1028.3622)" />
        <path
           inkscape:connector-curvature="0"
           style="opacity:0.4;fill:url(#linearGradient3864);fill-opacity:1;stroke:none"
           d="M 3,3 3,11 22,11 22,3 3,3 Z M 4,4 21,4 21,10 4,10 4,4 Z"
           transform="translate(0,1028.3622)"
           id="rect3842" />
      </g>
      <ellipse
         ry="3.5355339"
         rx="5.1486211"
         cy="14.409864"
         cx="12.705825"
         transform="matrix(0.87880699,-0.47717741,0.47717743,0.87880703,-4.8721659,1035.6854)"
         id="path3908"
         style="opacity:0.25;fill:#000000;fill-opacity:1;stroke:none;filter:url(#filter3928)" />
      <circle
         r="4"
         cy="14"
         cx="15"
         transform="matrix(1,0,0,1.125,0,1027.1122)"
         id="path3890"
         style="opacity:0.3;fill:#000000;fill-opacity:1;stroke:none;filter:url(#filter3900)" />
      <g
         transform="translate(-2.41281,-15.922019)"
         id="g14571">
        <g
           transform="matrix(1.0520833,0,0,1,0.28781,15.922019)"
           id="g3866">
          <ellipse
             ry="2.5"
             rx="2"
             cy="34.5"
             cx="10"
             transform="matrix(1.2,0,0,1.2,0,995.9622)"
             id="path14339"
             style="opacity:0.2;fill:#000000;fill-opacity:1;stroke:none" />
          <circle
             r="1"
             cy="34"
             cx="10"
             transform="matrix(0.46534652,0,0,1,7.3465349,1002.3622)"
             id="path14341"
             style="opacity:0.5;fill:#a4d379;fill-opacity:1;stroke:none" />
        </g>
        <ellipse
           ry="2.5"
           rx="2"
           cy="34.5"
           cx="10"
           style="opacity:0.2;fill:#000000;fill-opacity:1;stroke:none"
           id="path14351"
           transform="matrix(0.5,0,0,0.4,14.4375,1038.4997)" />
        <ellipse
           ry="2.5"
           rx="2"
           cy="34.5"
           cx="10"
           transform="matrix(0.5,0,0,0.4,1.4375,1038.4997)"
           id="path3870"
           style="opacity:0.2;fill:#000000;fill-opacity:1;stroke:none" />
      </g>
      <g
         transform="translate(0.0204472,-0.99821691)"
         id="g14603">
        <g
           transform="matrix(1.0046214,0,0,0.9972557,123.48791,-27.039689)"
           id="use14540">
          <circle
             r="4"
             cy="49"
             cx="-110"
             transform="translate(0,1028.3622)"
             id="path14639"
             style="fill:url(#linearGradient14645);fill-opacity:1;stroke:none" />
          <path
             sodipodi:nodetypes="ssssssssss"
             inkscape:connector-curvature="0"
             style="opacity:0.4;fill:#000000;fill-opacity:1;stroke:none"
             d="m -110,45 c -2.20914,0 -4,1.790861 -4,4 0,2.209139 1.79086,4 4,4 2.20914,0 4,-1.790861 4,-4 0,-2.209139 -1.79086,-4 -4,-4 z m 0,1 c 1.65685,0 3,1.343146 3,3 0,1.656854 -1.34315,2 -3,2 -1.65685,0 -3,-0.343146 -3,-2 0,-1.656854 1.34315,-3 3,-3 z"
             transform="translate(0,1028.3622)"
             id="path14641" />
          <path
             sodipodi:nodetypes="ssssssssss"
             transform="translate(0,1028.3622)"
             inkscape:connector-curvature="0"
             style="opacity:0.4;fill:#ffffff;fill-opacity:1;stroke:none"
             d="m -110,46 c -1.65685,0 -3,1.343146 -3,3 0,1.656854 1.34315,2 3,2 1.65685,0 3,-0.343146 3,-2 0,-1.656854 -1.34315,-3 -3,-3 z m 0,1 c 1.10457,0 2,0.895431 2,2 0,1.104569 -0.89543,1 -2,1 -1.10457,0 -2,0.104569 -2,-1 0,-1.104569 0.89543,-2 2,-2 z"
             id="path14643" />
        </g>
        <path
           inkscape:transform-center-x="-0.67289324"
           inkscape:transform-center-y="0.24893592"
           sodipodi:end="3.1415927"
           sodipodi:start="0"
           transform="matrix(0.55151432,-0.83416542,0.83416542,0.55151432,-6.9510307,1052.1535)"
           d="m 18,14 a 3,3 0 0 1 -1.5,2.598076 3,3 0 0 1 -3,0 A 3,3 0 0 1 12,14 l 3,0 z"
           sodipodi:ry="3"
           sodipodi:rx="3"
           sodipodi:cy="14"
           sodipodi:cx="15"
           id="path14585"
           style="opacity:0.2;fill:#ffffff;fill-opacity:1;stroke:none"
           sodipodi:type="arc" />
      </g>
      <g
         id="g14542"
         transform="matrix(1.0046214,0,0,0.9972557,125.50835,-32.035162)">
        <circle
           r="4"
           cy="49"
           cx="-110"
           style="fill:url(#linearGradient3906);fill-opacity:1;stroke:none"
           id="path14544"
           transform="translate(0,1028.3622)" />
        <path
           sodipodi:nodetypes="ssssssssss"
           transform="translate(0,1028.3622)"
           id="path14546"
           d="m -110,45 c -2.20914,0 -4,1.790861 -4,4 0,2.209139 1.79086,4 4,4 2.20914,0 4,-1.790861 4,-4 0,-2.209139 -1.79086,-4 -4,-4 z m 0,1 c 1.65685,0 3,1.343146 3,3 0,1.656854 -1.34315,1.997248 -3,1.997248 -1.65685,0 -3,-0.340394 -3,-1.997248 0,-1.656854 1.34315,-3 3,-3 z"
           style="opacity:0.3;fill:#000000;fill-opacity:1;stroke:none"
           inkscape:connector-curvature="0" />
        <path
           sodipodi:nodetypes="ssssssssss"
           id="path14548"
           d="m -110,1074.3622 c -1.65685,0 -3,1.3432 -3,3 0,1.6569 1.34315,1.9972 3,1.9972 1.65685,0 3,-0.3403 3,-1.9972 0,-1.6568 -1.34315,-3 -3,-3 z m 0,1 c 1.10457,0 2,0.8955 2,2 0,1.1046 -0.89543,0.9973 -2,0.9973 -1.10457,0 -2,0.1073 -2,-0.9973 0,-1.1045 0.89543,-2 2,-2 z"
           style="opacity:0.4;fill:#ffffff;fill-opacity:1;stroke:none"
           inkscape:connector-curvature="0" />
      </g>
      <path
         inkscape:transform-center-x="-0.67289324"
         inkscape:transform-center-y="0.24893592"
         sodipodi:end="3.1415927"
         sodipodi:start="0"
         transform="matrix(0.55151432,-0.83416542,0.83416542,0.55151432,-4.9510306,1047.1535)"
         d="m 18,14 a 3,3 0 0 1 -1.5,2.598076 3,3 0 0 1 -3,0 A 3,3 0 0 1 12,14 l 3,0 z"
         sodipodi:ry="3"
         sodipodi:rx="3"
         sodipodi:cy="14"
         sodipodi:cx="15"
         id="path14583"
         style="opacity:0.4;fill:#ffffff;fill-opacity:1;stroke:none"
         sodipodi:type="arc" />
    </g>
    <rect
       style="opacity:1;fill:url(#linearGradient3833);fill-opacity:1;stroke:none"
       id="rect3036"
       width="23.25"
       height="8.9423075"
       x="1.9999996"
       y="1012.0722"
       rx="1.7884113"
       ry="1.7884113" />
    <path
       inkscape:connector-curvature="0"
       style="opacity:0.4;fill:#000000;fill-opacity:1;stroke:none"
       d="m 3.7884612,1012.0722 c -0.9907797,0 -1.7884615,0.7976 -1.7884615,1.7884 l 0,5.3654 c 0,0.9908 0.7976818,1.7885 1.7884615,1.7885 l 19.6730768,0 c 0.990779,0 1.788462,-0.7977 1.788462,-1.7885 l 0,-5.3654 c 0,-0.9908 -0.797683,-1.7884 -1.788462,-1.7884 l -19.6730768,0 z m 0,1.7884 19.6730768,0 0,5.3654 -19.6730768,0 0,-5.3654 z"
       id="rect3043" />
  </g>
</svg>
